<svg xmlns="http://www.w3.org/2000/svg" width="250.432" height="20" viewBox="0 0 250.432 20">
    <defs>
        <clipPath id="clip-path">
            <path id="사각형_30" fill="none" d="M0 0H250.432V20H0z"/>
        </clipPath>
        <style>
            .cls-4{fill:#fff}
        </style>
    </defs>
    <g id="그룹_33">
        <g id="그룹_25" clip-path="url(#clip-path)">
            <path id="사각형_29" fill="#e50019" d="M2.639 0h25.292a2.638 2.638 0 0 1 2.638 2.638V14.76a2.638 2.638 0 0 1-2.638 2.64H2.639A2.639 2.639 0 0 1 0 14.759V2.639A2.639 2.639 0 0 1 2.639 0z" transform="translate(27.327 .746)"/>
            <path id="패스_34" d="M1.334 7.241l2.4-2.774a.939.939 0 0 1 .218-.175.654.654 0 0 1 .255-.086.528.528 0 0 1 .263.036.592.592 0 0 1 .245.195.751.751 0 0 1 .19.526.877.877 0 0 1-.234.539L2.51 7.988l2.377 2.7a.781.781 0 0 1 .189.512.77.77 0 0 1-.2.533.541.541 0 0 1-.47.2.7.7 0 0 1-.477-.247L1.6 9.032l-.264.307V11.4a.572.572 0 0 1-.2.5.779.779 0 0 1-.473.149.741.741 0 0 1-.465-.149.585.585 0 0 1-.198-.5V4.763a.586.586 0 0 1 .194-.5.74.74 0 0 1 .464-.143.791.791 0 0 1 .473.143.569.569 0 0 1 .2.5z" class="cls-4" transform="translate(0 .958)"/>
            <path id="패스_35" d="M4.47 8.062a5.238 5.238 0 0 1 .237-1.627A3.86 3.86 0 0 1 5.351 5.2a2.817 2.817 0 0 1 .961-.778 2.661 2.661 0 0 1 1.193-.271 2.7 2.7 0 0 1 1.2.271 2.842 2.842 0 0 1 .969.778 3.8 3.8 0 0 1 .65 1.234 5.238 5.238 0 0 1 .237 1.627 5.189 5.189 0 0 1-.237 1.622 3.808 3.808 0 0 1-.65 1.229 2.838 2.838 0 0 1-.969.777 2.7 2.7 0 0 1-1.2.272 2.662 2.662 0 0 1-1.193-.272 2.814 2.814 0 0 1-.961-.777 3.873 3.873 0 0 1-.645-1.229 5.189 5.189 0 0 1-.236-1.621m1.334 0a4.015 4.015 0 0 0 .127 1.059 2.48 2.48 0 0 0 .351.783 1.5 1.5 0 0 0 .54.482 1.459 1.459 0 0 0 .684.164 1.481 1.481 0 0 0 .688-.164 1.512 1.512 0 0 0 .548-.486 2.46 2.46 0 0 0 .36-.783 3.858 3.858 0 0 0 .132-1.059A3.858 3.858 0 0 0 9.1 7a2.479 2.479 0 0 0-.36-.784 1.586 1.586 0 0 0-.549-.487 1.47 1.47 0 0 0-.688-.168 1.489 1.489 0 0 0-.684.163 1.529 1.529 0 0 0-.54.477 2.426 2.426 0 0 0-.351.778A4.108 4.108 0 0 0 5.8 8.062" class="cls-4" transform="translate(1.04 .966)"/>
            <path id="패스_36" d="M15.248 11.245a.831.831 0 0 1-.166.542.558.558 0 0 1-.456.2.724.724 0 0 1-.3-.07.668.668 0 0 1-.276-.277l-2.628-4.551v4.166a.743.743 0 0 1-.18.542.612.612 0 0 1-.46.185.986.986 0 0 1-.245-.032.507.507 0 0 1-.219-.117.6.6 0 0 1-.154-.226.925.925 0 0 1-.057-.353V4.828a.6.6 0 0 1 .206-.523.791.791 0 0 1 .461-.143.632.632 0 0 1 .32.073.758.758 0 0 1 .25.275L13.932 9V4.878a.717.717 0 0 1 .189-.557.642.642 0 0 1 .444-.169.737.737 0 0 1 .482.164.685.685 0 0 1 .2.562z" class="cls-4" transform="translate(2.352 .966)"/>
            <path id="패스_37" d="M19.519 11.317a2.5 2.5 0 0 1-.719.482 2.344 2.344 0 0 1-.957.184 2.645 2.645 0 0 1-1.225-.277 2.513 2.513 0 0 1-.907-.793 3.84 3.84 0 0 1-.566-1.244 6.189 6.189 0 0 1-.2-1.627 6.089 6.089 0 0 1 .2-1.618 3.771 3.771 0 0 1 .566-1.224 2.519 2.519 0 0 1 .907-.778 2.705 2.705 0 0 1 1.225-.27 3.436 3.436 0 0 1 .851.106 2.584 2.584 0 0 1 .79.354 2.764 2.764 0 0 1 .667.64 3.112 3.112 0 0 1 .473.957.85.85 0 0 1-.017.635.679.679 0 0 1-.447.38q-.473.142-.764-.523a1.959 1.959 0 0 0-.622-.875 1.5 1.5 0 0 0-.895-.261 1.357 1.357 0 0 0-.732.19 1.491 1.491 0 0 0-.5.516 2.442 2.442 0 0 0-.28.783 5.185 5.185 0 0 0-.088.989 5.243 5.243 0 0 0 .088.992 2.628 2.628 0 0 0 .28.8 1.505 1.505 0 0 0 .5.537 1.327 1.327 0 0 0 .732.195 2.214 2.214 0 0 0 .881-.19 1.958 1.958 0 0 0 .759-.578v-.273a.3.3 0 0 0-.052-.2.207.207 0 0 0-.159-.057h-.658a.519.519 0 0 1-.487-.214.935.935 0 0 1-.127-.482 1.386 1.386 0 0 1 .022-.245.665.665 0 0 1 .088-.229.5.5 0 0 1 .185-.175.651.651 0 0 1 .319-.067h1.3a1.58 1.58 0 0 1 .439.052.617.617 0 0 1 .281.164.607.607 0 0 1 .144.3 2.292 2.292 0 0 1 .039.461v2.517a.649.649 0 0 1-.189.555.865.865 0 0 1-.47.143.933.933 0 0 1-.24-.032.531.531 0 0 1-.216-.111.622.622 0 0 1-.158-.221.884.884 0 0 1-.062-.354z" class="cls-4" transform="translate(3.478 .966)"/>
            <path id="패스_38" d="M25.985 12.242h-1.508V3.6h1.508v3.561a45.83 45.83 0 0 0 3.4-3.564H31.2a44.161 44.161 0 0 1-3.333 3.639l3.945 5.006h-1.77l-3.216-3.989c-.3.272-.624.568-.842.754z" class="cls-4" transform="translate(5.695 .837)"/>
            <path id="패스_39" d="M37.48 11.809h-1.552a1.9 1.9 0 0 1-.175-.743A3.749 3.749 0 0 1 33.7 12c-1.17.121-2.174-.328-2.317-1.476a2.026 2.026 0 0 1 1.541-2.186 15.21 15.21 0 0 1 1.934-.382c.393-.088.9-.207.9-.646 0-.4-.5-.71-1.355-.71-.786 0-1.41.471-1.356 1.061h-1.456c-.11-1.334 1.223-2.351 2.808-2.351 1.552 0 2.863.721 2.863 2.034v3.431a3.039 3.039 0 0 0 .218 1.038m-2.437-2.637c-.481.131-1.17.229-1.519.371-.438.174-.7.415-.568.786.175.5.906.339 1.42.164.6-.207 1.377-.71 1.377-1.267v-.36a1.784 1.784 0 0 1-.71.306" class="cls-4" transform="translate(7.298 1.235)"/>
            <path id="패스_40" d="M44.743 8.1c0-.743-.165-1.377-.832-1.356-.645.012-1.016.536-1.016 1.5v3.575h-1.508V8.1c0-.743-.165-1.377-.831-1.356-.645.012-.995.536-.995 1.5v3.575h-1.52V5.554h1.52v.611a1.919 1.919 0 0 1 1.584-.82 1.57 1.57 0 0 1 1.453.885 1.989 1.989 0 0 1 3.652 1.236v4.35h-1.507z" class="cls-4" transform="translate(8.851 1.24)"/>
            <path id="패스_41" d="M57.271 16.89a4.747 4.747 0 0 1-2.48-2.755 13.391 13.391 0 0 1-.614-4.6 12.511 12.511 0 0 1 .687-4.583 4.687 4.687 0 0 1 2.407-2.581V4.88a2.959 2.959 0 0 0-.95 2 15.649 15.649 0 0 0-.194 2.669 14.517 14.517 0 0 0 .194 2.684 3.4 3.4 0 0 0 .95 2.147z" class="cls-4" transform="translate(12.605 .552)"/>
            <path id="패스_42" d="M61.962 15.872v-3.858h-4.213V9.853H68.2v2.161h-4.215v3.858zM64.274 5.3a1.9 1.9 0 0 0 1.192.971 7.982 7.982 0 0 0 2.4.377v2.205a14.022 14.022 0 0 1-2.829-.378 3.246 3.246 0 0 1-2.059-1.16 3.323 3.323 0 0 1-2.094 1.16 14.031 14.031 0 0 1-2.793.378V6.661a7.768 7.768 0 0 0 2.384-.376 1.838 1.838 0 0 0 1.186-.985h-3.575V3.2h9.775v2.1z" class="cls-4" transform="translate(13.436 .743)"/>
            <path id="패스_43" d="M68.21 12.223a16.075 16.075 0 0 0 .19-2.684 16.32 16.32 0 0 0-.2-2.669 3.057 3.057 0 0 0-.938-2V2.36a4.691 4.691 0 0 1 2.4 2.582 12.325 12.325 0 0 1 .7 4.583 13.147 13.147 0 0 1-.626 4.6 4.753 4.753 0 0 1-2.467 2.755v-2.51a3.5 3.5 0 0 0 .95-2.147" class="cls-4" transform="translate(15.649 .549)"/>
            <path id="패스_44" d="M79.655.071v2.21q0 3.944-2.608 5.785a9.692 9.692 0 0 1-5.2 1.561V6.441a7.194 7.194 0 0 0 3.687-1 2.524 2.524 0 0 0 1.187-2.167h-4.655V.071zm6.868 18.851H83.5V13.9H72.767v-3.233h13.757zM83.666 6.333H83v3.554h-2.788V.071H83v2.99h.666V.071h2.877v9.816h-2.877z" class="cls-4" transform="translate(16.717 .016)"/>
            <path id="패스_45" d="M92.414.07a6.182 6.182 0 0 0 .666 3.164A3.894 3.894 0 0 0 95.992 4.9v3.275a7.546 7.546 0 0 1-3.218-.889 4.273 4.273 0 0 1-1.888-1.864 4.52 4.52 0 0 1-2.068 1.886 7.431 7.431 0 0 1-3.11.867V4.924a3.926 3.926 0 0 0 2.9-1.669A6.231 6.231 0 0 0 89.25.07zm5.36 11.874H87.037V9.128h13.757v6.089H90.058v.693h10.735v2.925H88.53a1.388 1.388 0 0 1-1.079-.412 2.205 2.205 0 0 1-.414-1.473V12.6h10.737zm0-11.874h3.021v8.515h-3.021z" class="cls-4" transform="translate(19.941 .016)"/>
            <path id="패스_46" d="M111.969 7.481V.07h3.021v3.142H117V6.44h-2.01v7.866h-3.021v-3.619H99.884V7.481h2.41V4.859h3v2.622h1.764v-4.2h-6.494V.07h9.5v7.411zm-10.737 4.355h3.021v3.749h10.862v3.228h-12.39a1.393 1.393 0 0 1-1.08-.412 2.124 2.124 0 0 1-.413-1.452z" class="cls-4" transform="translate(23.24 .016)"/>
            <path id="패스_47" d="M120.6 3.3h-6.114V.071h9.134V8.8h-6.12v2.86h8.561V.071h3.021v19.024h-3.021v-4.181h-10.12a1.31 1.31 0 0 1-1.041-.414 2.118 2.118 0 0 1-.413-1.452V5.683h6.113z" class="cls-4" transform="translate(26.637 .016)"/>
            <path id="패스_48" d="M135.094.07q0 6.24.9 8.884a3.752 3.752 0 0 0 2.734 2.753v3.532a6.785 6.785 0 0 1-3.345-1.408 5.585 5.585 0 0 1-1.853-2.6 5.5 5.5 0 0 1-2 2.622 7.532 7.532 0 0 1-3.23 1.407v-3.533a3.846 3.846 0 0 0 2.77-2.774Q132 6.289 132 .07zm5.251 0h3.021v19.025h-3.021z" class="cls-4" transform="translate(29.85 .016)"/>
            <path id="패스_49" d="M158.067 17.962h-15.609v-3.228h15.609zM151.863 0a7.307 7.307 0 0 0 1.457 4.961 6.184 6.184 0 0 0 4.027 1.839v3.4A11.644 11.644 0 0 1 153 8.927a5.732 5.732 0 0 1-2.733-2.643 5.789 5.789 0 0 1-2.77 2.665 11.771 11.771 0 0 1-4.351 1.256v-3.38a6.259 6.259 0 0 0 4.027-1.864A7.289 7.289 0 0 0 148.645 0z" class="cls-4" transform="translate(33.145)"/>
            <path id="패스_50" d="M160.079 6.2v.672h4.8v3.014h-6.365a1.28 1.28 0 0 1-1.044-.433A2.118 2.118 0 0 1 157.059 8V.07h7.66V3.1h-4.64v.629h3.381V6.2zm-2.179 4.509h13.757v6.241a2.089 2.089 0 0 1-.433 1.473 1.346 1.346 0 0 1-1.043.391h-10.802a1.3 1.3 0 0 1-1.061-.412 2.12 2.12 0 0 1-.413-1.452zm10.735 3.034h-7.715v1.972h7.715zm-3.178-10.076V.07h2.769v9.838h-2.769V6.44h-1.278V3.667zM168.8.07h2.878v9.837H168.8z" class="cls-4" transform="translate(36.542 .016)"/>
            <path id="패스_51" d="M190.911 7v3.206h-3.074a5.347 5.347 0 0 1 .737 1.517 5.692 5.692 0 0 1 .287 1.8 6.35 6.35 0 0 1-1.887 4.68 5.563 5.563 0 0 1-4.064 1.776 5.641 5.641 0 0 1-4.1-1.776 6.384 6.384 0 0 1-1.87-4.68 6.517 6.517 0 0 1 .918-3.316h-2.788V7h5.36V4.816h3V7h3.723V3.3h-11.58V.071h14.6V7zm-9.944 4.2a3.414 3.414 0 0 0-.809 2.319 3.383 3.383 0 0 0 .809 2.3 2.47 2.47 0 0 0 3.83 0 3.331 3.331 0 0 0 .827-2.3 3.361 3.361 0 0 0-.827-2.319 2.507 2.507 0 0 0-3.83 0" class="cls-4" transform="translate(40.733 .016)"/>
            <path id="패스_52" d="M198.894.071V1.89a6.561 6.561 0 0 1-3.561 6.327 13.53 13.53 0 0 1-5.664 1.283V6.247A10.833 10.833 0 0 0 194 5.358q1.744-.845 1.744-2.189H189.9V.071zm-8.38 10.119h13.757v6.327a2.754 2.754 0 0 1-.45 1.842 2.238 2.238 0 0 1-1.673.476h-10.141a1.356 1.356 0 0 1-1.08-.433 2.118 2.118 0 0 1-.413-1.452zm10.753 3.163H193.5v2.3h7.77zm3-6.977v2.839h-3.017V.071h3.021v3.077h2.029v3.228z" class="cls-4" transform="translate(44.13 .016)"/>
        </g>
    </g>
</svg>
