<svg xmlns="http://www.w3.org/2000/svg" id="그룹_15" width="28" height="32" viewBox="0 0 28 32">
    <defs>
        <clipPath id="clip-path">
            <path id="사각형_9" fill="none" d="M0 0H28V32H0z"/>
        </clipPath>
        <style>
            .cls-3{fill:none}.cls-2{clip-path:url(#clip-path)}.cls-3{stroke:#000;stroke-linecap:round;stroke-linejoin:round;stroke-width:2px}
        </style>
    </defs>
    <g id="그룹_10">
        <g id="그룹_9" class="cls-2">
            <path id="패스_26" d="M1 31V1h20v30" class="cls-3"/>
            <path id="패스_27" d="M21 1l6 6h-6" class="cls-3"/>
        </g>
    </g>
    <path id="선_9" d="M0 0L12 0" class="cls-3" transform="translate(5 9)"/>
    <g id="그룹_12">
        <g id="그룹_11" class="cls-2">
            <path id="패스_28" d="M1 31V1h20v30" class="cls-3"/>
        </g>
    </g>
    <path id="선_10" d="M0 0L12 0" class="cls-3" transform="translate(5 9)"/>
    <path id="선_11" d="M0 0L12 0" class="cls-3" transform="translate(5 13)"/>
    <path id="선_12" d="M0 0L12 0" class="cls-3" transform="translate(5 13)"/>
    <path id="선_13" d="M0 0L12 0" class="cls-3" transform="translate(5 17)"/>
    <path id="선_14" d="M0 0L12 0" class="cls-3" transform="translate(5 17)"/>
    <path id="선_15" d="M0 0L4 0" class="cls-3" transform="translate(5 21)"/>
    <path id="선_16" d="M0 0L4 0" class="cls-3" transform="translate(5 21)"/>
    <g id="그룹_14">
        <g id="그룹_13" class="cls-2">
            <path id="패스_29" d="M21 31l-2.516-2L16 31l-2.375-2L11 31l-2.469-2L6 31l-2.516-2L1 31" class="cls-3"/>
        </g>
    </g>
</svg>
